# xmcd CD database file
#
# Track frame offsets:
#	150
#	15158
#	29467
#	41293
#	55647
#	71065
#	86489
#	98854
#	111106
#	126084
#	139843
#	150587
#	163516
#	176619
#	187747
#	202202
#	215824
#	230671
#	245981
#	260633
#	274004
#	287727
#	303533
#	316428
#
# Disc length: 4410 seconds
#
# Revision: 2
# Processed by: cddbd v1.5.2PL0 Copyright (c) Steve Scherf et al.
# Submitted via: CDex 1.51
#
DISCID=5d113818
DTITLE=Sarah Vaughan - The Complete Columbia Recodings CD1
DYEAR=2006
DGENRE=Jazz
TTITLE0=Black Coffee
TTITLE1=Bianca
TTITLE2=As You Desire Me
TTITLE3=While You Are Gone
TTITLE4=Tonight I Shall Sleep
TTITLE5=That Lucky Old Sun
TTITLE6=Give Me A Song
TTITLE7=Make Believe
TTITLE8=You Taught Me To Love Again
TTITLE9=Just Friends
TTITLE10=Lonely Girl
TTITLE11=You Say You Care
TTITLE12=Fool's Paradise
TTITLE13=I Cried For You
TTITLE14=You're Mine, You
TTITLE15=I'm Crazy To Love You
TTITLE16=Summertime
TTITLE17=The Nearness Of You
TTITLE18=Our Very Own
TTITLE19=Don't Be Afraid
TTITLE20=Ain't Misbehavin'
TTITLE21=Goodnight My Love
TTITLE22=Can't Get Out Of This Mood
TTITLE23=It Might As Well Be Spring
EXTD=YEAR: 2006
EXTT0=
EXTT1=
EXTT2=
EXTT3=
EXTT4=
EXTT5=
EXTT6=
EXTT7=
EXTT8=
EXTT9=
EXTT10=
EXTT11=
EXTT12=
EXTT13=
EXTT14=
EXTT15=
EXTT16=
EXTT17=
EXTT18=
EXTT19=
EXTT20=
EXTT21=
EXTT22=
EXTT23=
PLAYORDER=
